<svg height="512pt" viewBox="-33 0 512 512" width="512pt" xmlns="http://www.w3.org/2000/svg"><path d="m298.035156 212.136719-63.640625-63.640625 42.425781-42.425782 63.640626 63.640626zm0 0"/><path d="m425.316406 0-21.210937 21.214844-21.214844-21.214844-21.214844 21.214844 21.214844 21.210937-31.820313 31.820313-31.820312-10.609375-21.214844 21.214843 42.429688 42.425782 106.066406-106.0625zm0 0"/><path d="m344.035156 379.214844c-.007812-.003906-.015625-.003906-.019531-.003906v.003906zm0 0"/><path d="m0 383.835938 63.640625 63.640624 116.671875-116.476562h42.425781l75.296875-76.441406-84.851562-84.851563zm212.132812-106.066407-21.214843-21.210937 21.214843-21.214844 21.214844 21.214844zm0 0"/><path d="m292.082031 303.890625-44.28125 44.28125c28.925781 17.046875 61.484375 27.792969 96.214844 31.039063l8.515625-59.472657c-21.632812-1.683593-41.929688-7.148437-60.449219-15.847656zm0 0"/><path d="m213.597656 490.765625-50.210937-100.609375-49.5 49.5 36.074219 72.34375zm0 0"/></svg>