<?xml version="1.0" encoding="iso-8859-1"?>
<!-- Generator: Adobe Illustrator 19.0.0, SVG Export Plug-In . SVG Version: 6.00 Build 0)  -->
<svg version="1.1" id="Capa_1" xmlns="http://www.w3.org/2000/svg" xmlns:xlink="http://www.w3.org/1999/xlink" x="0px" y="0px"
	 viewBox="0 0 512 512" style="enable-background:new 0 0 512 512;" xml:space="preserve">
<g>
	<g>
		<path d="M377,60h-16.516C353.515,25.809,321.229,0,285,0H135C93.633,0,60,33.647,60,75v122c0,8.291,6.709,15,15,15s15-6.709,15-15
			V75c0-24.814,20.186-45,45-45h150c19.53,0,36.024,12.578,42.237,30H315c-8.287,0-15,6.714-15,15v117.248
			c7.764-3.684,15.917-6.654,24.551-8.3c22.646-4.323,47.353-0.529,67.449,9.064V75C392,66.714,385.284,60,377,60z"/>
	</g>
</g>
<g>
	<g>
		<path d="M75,272c-8.291,0-15,6.709-15,15v30c0,8.291,6.709,15,15,15s15-6.709,15-15v-30C90,278.709,83.291,272,75,272z"/>
	</g>
</g>
<g>
	<g>
		<path d="M55.605,231.395c-5.859-5.859-15.352-5.859-21.211,0l-30,30c-5.859,5.859-5.859,15.352,0,21.211
			c5.86,5.86,15.351,5.86,21.211,0l30-30C61.465,246.746,61.465,237.254,55.605,231.395z"/>
	</g>
</g>
<g>
	<g>
		<path d="M145.605,261.395l-30-30c-5.859-5.859-15.352-5.859-21.211,0c-5.859,5.859-5.859,15.352,0,21.211l30,30
			c5.86,5.86,15.351,5.86,21.211,0C151.464,276.747,151.464,267.254,145.605,261.395z"/>
	</g>
</g>
<g>
	<g>
		<path d="M440.986,242c9.591,20.094,13.385,42.794,9.051,65.449c-1.646,8.633-4.616,16.787-8.3,24.551H512v-90H440.986z"/>
	</g>
</g>
<g>
	<g>
		<path d="M399.999,234.001c-14.327-14.34-35.048-22.016-54.911-22.016c-38.469,0-67.586,28.351-73.652,60.19
			c-10.137,52.866,37.305,98.545,90.389,88.403c29.033-5.552,53.203-29.707,58.74-58.755
			C425.399,276.598,417.899,251.886,399.999,234.001z M377,302h-32c-8.291,0-15-6.709-15-15v-30c0-8.291,6.709-15,15-15
			c8.291,0,17,6.709,17,15v15h15c8.291,0,15,6.709,15,15C392,295.291,385.291,302,377,302z"/>
	</g>
</g>
<g>
	<g>
		<path d="M255,60h-30c-24.814,0-45,20.186-45,45v107h90V75C270,66.716,263.286,60,255,60z"/>
	</g>
</g>
<g>
	<g>
		<path d="M467,60h-30c-8.287,0-15,6.714-15,15v137h90V105C512,80.186,491.814,60,467,60z"/>
	</g>
</g>
<g>
	<g>
		<path d="M345.322,391.956c-15.844,0-31.21-3.893-45.322-10.607V497c0,8.282,6.713,14.998,15,15h62c8.284,0,15-6.716,15-15V381.742
			C378.041,388.37,362.43,391.956,345.322,391.956z"/>
	</g>
</g>
<g>
	<g>
		<path d="M241.962,266.551c1.647-8.635,4.617-16.789,8.299-24.551H180v90h71.017C241.422,311.902,237.628,289.201,241.962,266.551z
			"/>
	</g>
</g>
<g>
	<g>
		<path d="M422,362v135c0,8.282,6.714,14.998,15,15h30c24.814,0,45-20.186,45-45V362H422z"/>
	</g>
</g>
<g>
	<g>
		<path d="M180,362v105c0,24.814,20.186,45,45,45h30c8.287-0.002,15-6.716,15-15V362H180z"/>
	</g>
</g>
<g>
</g>
<g>
</g>
<g>
</g>
<g>
</g>
<g>
</g>
<g>
</g>
<g>
</g>
<g>
</g>
<g>
</g>
<g>
</g>
<g>
</g>
<g>
</g>
<g>
</g>
<g>
</g>
<g>
</g>
</svg>
