<?xml version="1.0" encoding="iso-8859-1"?>
<!-- Generator: Adobe Illustrator 19.0.0, SVG Export Plug-In . SVG Version: 6.00 Build 0)  -->
<svg version="1.1" id="Capa_1" xmlns="http://www.w3.org/2000/svg" xmlns:xlink="http://www.w3.org/1999/xlink" x="0px" y="0px"
	 viewBox="0 0 512 512" style="enable-background:new 0 0 512 512;" xml:space="preserve">
<g>
	<g>
		<path d="M361.001,181h-30c-16.538,0-30,13.462-30,30c0,16.538,13.462,30,30,30h30c16.538,0,30-13.462,30-30
			C391.001,194.462,377.54,181,361.001,181z"/>
	</g>
</g>
<g>
	<g>
		<path d="M286.001,331h-60c-8.276,0-15,6.724-15,15s6.724,15,15,15h60c8.276,0,15-6.724,15-15S294.278,331,286.001,331z"/>
	</g>
</g>
<g>
	<g>
		<path d="M181.001,181h-30c-16.538,0-30,13.462-30,30c0,16.538,13.462,30,30,30h30c16.539,0,30-13.462,30-30
			C211.001,194.462,197.539,181,181.001,181z"/>
	</g>
</g>
<g>
	<g>
		<rect x="61" y="451" width="390" height="61"/>
	</g>
</g>
<g>
	<g>
		<path d="M256.001,0c-121.846,0-218.765,104.074-210,226.542L59.897,421h392.208l13.896-194.458
			C474.701,105.002,378.781,0,256.001,0z M91.001,211c0-33.091,26.909-60,60-60h30c33.091,0,60,26.909,60,60s-26.909,60-60,60h-30
			C117.911,271,91.001,244.091,91.001,211z M286.001,391h-60c-24.814,0-45-20.186-45-45c0-24.814,20.186-45,45-45h60
			c24.814,0,45,20.186,45,45C331.001,370.814,310.816,391,286.001,391z M361.001,271h-30c-33.091,0-60-26.909-60-60s26.909-60,60-60
			h30c33.091,0,60,26.909,60,60S394.092,271,361.001,271z"/>
	</g>
</g>
<g>
</g>
<g>
</g>
<g>
</g>
<g>
</g>
<g>
</g>
<g>
</g>
<g>
</g>
<g>
</g>
<g>
</g>
<g>
</g>
<g>
</g>
<g>
</g>
<g>
</g>
<g>
</g>
<g>
</g>
</svg>
